#!OML:ASF E:/inclinewalkrobotboard/Project1/Captureday1/Session1/subject1.ASF
:FULLY-SPECIFIED
:DEGREES
338
root 0 0 0 17.434264286223275 -4.371802843536939 -1.4455411106597054
lowerback 21.392589326816477 -3.2539351592775736 -1.1864836693474157
upperback -0.8344819497927256 -4.813924507136521 3.850408804347466
thorax -12.697985728694682 -2.1451136773383723 5.239650895236245
lowerneck -9.625942775558483 9.374969772667374 18.635206439080065
upperneck 21.39368572850629 10.999965682704259 -8.316092134050955
head 9.808058211599043 5.951965564349688 -4.619534418178887
rclavicle 1.3096321467132126E-15 6.337630968779525E-15
rhumerus 29.113218305015696 17.977426055918528 -73.13462864634602
rradius 104.14156651851505
rwrist -39.508599455723115
rhand -24.439223519142168 -24.213099660388533
rfingers 7.125019999999997
rthumb 2.089645189339283 -54.63537218702664
lclavicle -2.8292184588630985E-15 6.56637299937529E-15
lhumerus 25.87801254368908 -34.912896765820136 73.07609993625677
lradius 141.7499007912637
lwrist 8.696055832316574
lhand -33.27381179869569 8.21593696493013
lfingers 7.1250199999999415
lthumb -6.446363768131425 38.67124735473482
rfemur -48.984571911750876 3.203999168774793 29.239592452247216
rtibia 44.96480117607942
rfoot -22.032766693579685 -3.9200317003206777
rtoes -43.865252432101144
lfemur -35.83744855597488 -22.578728303219776 -13.033858986984777
ltibia 11.599129540391171
lfoot -45.655939237142086 7.515708181220503
ltoes -33.904898621633215
339
root 0 0 0 17.42644015957195 -4.394460048904213 -1.4411993623183976
lowerback 21.41427334356663 -3.253717469418631 -1.192634617737943
upperback -0.8284428583628749 -4.815302381647619 3.844133511081596
thorax -12.70312624251451 -2.1458887047064064 5.235641472595622
lowerneck -9.630601562057095 9.38135963733887 18.638341068842994
upperneck 21.379054180111094 11.010595219321127 -8.322553813043081
head 9.805615919436258 5.956246760451029 -4.620905469057826
rclavicle 1.1947522780098336E-15 6.3176916907181624E-15
rhumerus 29.221573569931568 17.519903520605922 -72.86522803986851
rradius 103.37192268181387
rwrist -39.27149974883538
rhand -24.436838672731014 -24.306503607398955
rfingers 7.1250199999999975
rthumb 2.0927185783556155 -54.72878608031215
lclavicle -2.8808145645583353E-15 6.550209832927915E-15
lhumerus 25.888351281559757 -34.91380684172359 73.06989900388993
lradius 141.75439996315072
lwrist 8.69135670736225
lhand -33.27780431999158 8.213404865258237
lfingers 7.125019999999941
lthumb -6.450139834322069 38.668887794176484
rfemur -49.39451689055407 3.3156637791343933 29.12861899295163
rtibia 45.10312267049317
rfoot -22.26804817195782 -3.906206829347287
rtoes -43.71422577247559
lfemur -36.134743511744624 -22.370819532441605 -13.080939821761312
ltibia 12.176833453251199
lfoot -45.51786836012634 7.329234410940942
ltoes -33.97489359376909
340
root 0 0 0 17.422230441929397 -4.410201689780678 -1.4369308114229224
lowerback 21.429126045350117 -3.2534320912639982 -1.19601683906424
upperback -0.8241338807076914 -4.815848623747068 3.840771024499703
thorax -12.706533420022257 -2.146245286922389 5.233313060219642
lowerneck -9.634097576282059 9.384203389215214 18.63920008893315
upperneck 21.368874035271837 11.015690401425443 -8.326499205644282
head 9.80356955035842 5.958079168684129 -4.621695137080941
rclavicle 1.0874140202894206E-15 6.269586857381871E-15
rhumerus 29.308101173963706 17.187493233781304 -72.6669523016734
rradius 102.85580454796369
rwrist -39.124417371969095
rhand -24.436419322617702 -24.373765106821516
rfingers 7.1250199999999975
rthumb 2.0936343477071038 -54.79618658345178
lclavicle -2.950098673709443E-15 6.506882766157619E-15
lhumerus 25.894143807501955 -34.9460539136775 73.08619305726921
lradius 141.7782835416686
lwrist 8.698179368742052
lhand -33.287536782657426 8.214188339015806
lfingers 7.125019999999941
lthumb -6.459555813990237 38.67023907809435
rfemur -49.721070355868896 3.408896173886923 29.051111325237773
rtibia 45.21742555941459
rfoot -22.4782447031224 -3.8888547347659017
rtoes -43.57371627243958
lfemur -36.597284372358544 -22.09008106179647 -13.107636019695965
ltibia 12.950628699014544
lfoot -45.36041985298509 7.099025893900215
ltoes -34.080994747312275
341
root 0 0 0 17.42170078754654 -4.4184904899516635 -1.4331333678778604
lowerback 21.436938760765596 -3.253024893276037 -1.1965317562862663
upperback -0.8216718323172163 -4.815491820270812 3.8402762608894214
thorax -12.708226623044794 -2.1461525251565514 5.232566097977008
lowerneck -9.636276804396928 9.383703085207497 18.638127317014973
upperneck 21.363419861189048 11.015443654655336 -8.327740896340929
head 9.802034630060538 5.957616898002357 -4.6218729299657815
rclavicle 9.986039892352571E-16 6.200857898081784E-15
rhumerus 29.36818125350712 17.00157376853345 -72.55121339427276
rradius 102.63091895249573
rwrist -39.07773099541633
rhand -24.43804247427718 -24.412471742706057
rfingers 7.1250199999999975
rthumb 2.0922993426702945 -54.835157812133055
lclavicle -3.0308616933799055E-15 6.441603440342167E-15
lhumerus 25.89490747388679 -35.005770260615954 73.12278149005834
lradius 141.81845923243623
lwrist 8.715483787235698
lhand -33.30181490608176 8.218172611488296
lfingers 7.125019999999941
lthumb -6.473449327307666 38.675116940492586
rfemur -49.95375492855455 3.478840111783448 29.00768286838357
rtibia 45.304591976447654
rfoot -22.652538543608813 -3.8689491373431295
rtoes -43.45210094986655
lfemur -37.194372581688846 -21.75451960723234 -13.114754847113279
ltibia 13.87491108596599
lfoot -45.19171538923013 6.8355156041682195
ltoes -34.214692653465875
342
root 0 0 0 17.42465135976081 -4.419410875471835 -1.4300030465976263
lowerback 21.438025734304283 -3.252460192250819 -1.194308851115693
upperback -0.8210152896516112 -4.814230509847895 3.842439738178438
thorax -12.70833139171875 -2.1456124991931556 5.233240625399937
lowerneck -9.637091644038579 9.380167559804239 18.635386142491175
upperneck 21.36241852895454 11.010325793706793 -8.326462539319902
head 9.801004248198849 5.9550852872459545 -4.621488770383358
rclavicle 9.360208215040694E-16 6.118201021502197E-15
rhumerus 29.399755232775952 16.972957878296945 -72.52382740219151
rradius 102.71038836296998
rwrist -39.13383127367217
rhand -24.441815121926666 -24.421533061989035
rfingers 7.1250199999999975
rthumb 2.088605491458793 -54.84461159535324
lclavicle -3.1177631950513823E-15 6.359600568604615E-15
lhumerus 25.89031581265641 -35.08864266664537 73.17708708358391
lradius 141.87160821818668
lwrist 8.74201487232055
lhand -33.319411899104296 8.22518416715301
lfingers 7.125019999999941
lthumb -6.490623114990047 38.68327393576894
rfemur -50.092697179593046 3.524659396966335 28.996721861428057
rtibia 45.364151249593235
rfoot -22.787244609374046 -3.8473373855807242
rtoes -43.35328390289568
lfemur -37.89435993365778 -21.380929219406184 -13.104827393977144
ltibia 14.907672172187446
lfoot -45.01813806009598 6.548016853622779
ltoes -34.36764177230646
